<svg xmlns="http://www.w3.org/2000/svg" version="1.1" xmlns:xlink="http://www.w3.org/1999/xlink" xmlns:svgjs="http://svgjs.com/svgjs" width="1441" height="560" preserveAspectRatio="none" viewBox="0 0 1441 560"><g mask="url(&quot;#SvgjsMask1037&quot;)" fill="none"><rect width="1441" height="560" x="0" y="0" fill="rgba(8, 0, 12, 1)"></rect><path d="M399.7046461530717 382.3405428204478L387.04835959562746 292.286384651791 296.9942014269707 304.94267120923524 309.6504879844149 394.996829377892z" fill="rgba(41, 6, 141, 0.35)" class="triangle-float1"></path><path d="M804.7233018550396 64.16741501269117L824.0808862821219 148.01432494301696 940.1724589640694 77.05449333723051z" fill="rgba(41, 6, 141, 0.35)" class="triangle-float3"></path><path d="M1270.0112249682259 457.5742985222207L1292.3833290872835 541.0681277667646 1375.8771583318273 518.6960236477071 1353.5050542127697 435.2021944031631z" fill="rgba(41, 6, 141, 0.35)" class="triangle-float3"></path><path d="M20.674624185808987 598.3773926424768L114.39142878784034 603.288882253172 119.3029183985355 509.57207765114066 25.586113796504158 504.6605880404455z" fill="rgba(41, 6, 141, 0.35)" class="triangle-float1"></path><path d="M941.4408926150663 193.0463511041835L947.2627410696022 81.95886496794617 836.1752549333648 76.13701651341037 830.353406478829 187.2245026496477z" fill="rgba(41, 6, 141, 0.35)" class="triangle-float3"></path><path d="M1006.9527842440913 484.4614967388523L951.9483566279059 423.3728910573004 887.8176619136708 536.4238353223544z" fill="rgba(41, 6, 141, 0.35)" class="triangle-float2"></path><path d="M1061.9035932870486 582.4789891693631L1146.493612334611 600.4591527697146 1164.4737759349625 515.8691337221521 1079.8837568874 497.8889701218007z" fill="rgba(41, 6, 141, 0.35)" class="triangle-float1"></path><path d="M112.55115095442505 642.9302182939875L174.1316743417246 474.23950903105265 19.083834693364167 498.7966743372867z" fill="rgba(41, 6, 141, 0.35)" class="triangle-float2"></path><path d="M1134.2798226138889 195.34916745646828L1268.9109471931768 140.95466231275574 1214.5164420494643 6.323537733467845 1079.8853174701762 60.71804287718038z" fill="rgba(41, 6, 141, 0.35)" class="triangle-float3"></path><path d="M818.2077998889115 244.92714226080633L902.2433486836899 303.76946700450003 961.0856734273837 219.73391820972165 877.0501246326052 160.89159346602793z" fill="rgba(41, 6, 141, 0.35)" class="triangle-float2"></path><path d="M1249.0955528558027 80.81148804025929L1408.5750141160213 55.708199382648445 1321.6887675313392-55.50112488608019z" fill="rgba(41, 6, 141, 0.35)" class="triangle-float2"></path><path d="M585.4416311222886 120.6712128112544L581.9335797560499 20.213765358162846 484.9841836691971 124.17926417749315z" fill="rgba(41, 6, 141, 0.35)" class="triangle-float3"></path><path d="M1269.0288348762986 255.60781425369575L1152.5191572591762 170.95857854066202 1067.8699215461425 287.4682561577845 1184.3795991632649 372.1174918708182z" fill="rgba(41, 6, 141, 0.35)" class="triangle-float1"></path><path d="M282.524825489711 513.9650037892084L375.29559941021154 403.40510068170664 264.7356963027098 310.6343267612061 171.9649223822093 421.19422986870785z" fill="rgba(41, 6, 141, 0.35)" class="triangle-float2"></path><path d="M394.95324458524726 429.1479755151018L307.3441453154534 341.5388762453079 219.73504604565943 429.1479755151018 307.3441453154534 516.7570747848957z" fill="rgba(41, 6, 141, 0.35)" class="triangle-float1"></path><path d="M221.50802840698205 454.34837537078823L224.2403239340922 610.8814812828153 378.0411343190092 451.6160798436781z" fill="rgba(41, 6, 141, 0.35)" class="triangle-float1"></path><path d="M511.9658407782475 67.41614076532477L523.9846695305828-29.70408826832366 444.66782193076574 2.341998312572777z" fill="rgba(41, 6, 141, 0.35)" class="triangle-float2"></path></g><defs><mask id="SvgjsMask1037"><rect width="1441" height="560" fill="#ffffff"></rect></mask><style>
            @keyframes float1 {
                0%{transform: translate(0, 0)}
                50%{transform: translate(-10px, 0)}
                100%{transform: translate(0, 0)}
            }

            .triangle-float1 {
                animation: float1 5s infinite;
            }

            @keyframes float2 {
                0%{transform: translate(0, 0)}
                50%{transform: translate(-5px, -5px)}
                100%{transform: translate(0, 0)}
            }

            .triangle-float2 {
                animation: float2 4s infinite;
            }

            @keyframes float3 {
                0%{transform: translate(0, 0)}
                50%{transform: translate(0, -10px)}
                100%{transform: translate(0, 0)}
            }

            .triangle-float3 {
                animation: float3 6s infinite;
            }
        </style></defs></svg>