<?xml version="1.0" standalone="no"?>
<svg xmlns:xlink="http://www.w3.org/1999/xlink" id="wave" style="transform:rotate(0deg); transition: 0.3s" viewBox="0 0 1440 470" version="1.1" xmlns="http://www.w3.org/2000/svg"><defs><linearGradient id="sw-gradient-0" x1="0" x2="0" y1="1" y2="0"><stop stop-color="rgba(84.843, 8.83, 100.499, 1)" offset="0%"/><stop stop-color="rgba(55.729, 10.571, 86.838, 1)" offset="100%"/></linearGradient></defs><path style="transform:translate(0, 0px); opacity:1" fill="url(#sw-gradient-0)" d="M0,141L18.5,164.5C36.9,188,74,235,111,266.3C147.7,298,185,313,222,274.2C258.5,235,295,141,332,109.7C369.2,78,406,110,443,101.8C480,94,517,47,554,86.2C590.8,125,628,251,665,282C701.5,313,738,251,775,258.5C812.3,266,849,345,886,344.7C923.1,345,960,266,997,235C1033.8,204,1071,219,1108,258.5C1144.6,298,1182,360,1218,336.8C1255.4,313,1292,204,1329,172.3C1366.2,141,1403,188,1440,203.7C1476.9,219,1514,204,1551,235C1587.7,266,1625,345,1662,321.2C1698.5,298,1735,172,1772,133.2C1809.2,94,1846,141,1883,172.3C1920,204,1957,219,1994,250.7C2030.8,282,2068,329,2105,313.3C2141.5,298,2178,219,2215,203.7C2252.3,188,2289,235,2326,219.3C2363.1,204,2400,125,2437,86.2C2473.8,47,2511,47,2548,39.2C2584.6,31,2622,16,2640,7.8L2658.5,0L2658.5,470L2640,470C2621.5,470,2585,470,2548,470C2510.8,470,2474,470,2437,470C2400,470,2363,470,2326,470C2289.2,470,2252,470,2215,470C2178.5,470,2142,470,2105,470C2067.7,470,2031,470,1994,470C1956.9,470,1920,470,1883,470C1846.2,470,1809,470,1772,470C1735.4,470,1698,470,1662,470C1624.6,470,1588,470,1551,470C1513.8,470,1477,470,1440,470C1403.1,470,1366,470,1329,470C1292.3,470,1255,470,1218,470C1181.5,470,1145,470,1108,470C1070.8,470,1034,470,997,470C960,470,923,470,886,470C849.2,470,812,470,775,470C738.5,470,702,470,665,470C627.7,470,591,470,554,470C516.9,470,480,470,443,470C406.2,470,369,470,332,470C295.4,470,258,470,222,470C184.6,470,148,470,111,470C73.8,470,37,470,18,470L0,470Z"/><defs><linearGradient id="sw-gradient-1" x1="0" x2="0" y1="1" y2="0"><stop stop-color="rgba(52.686, 9.388, 36.614, 1)" offset="0%"/><stop stop-color="rgba(30.834, 0.927, 105.052, 1)" offset="100%"/></linearGradient></defs><path style="transform:translate(0, 50px); opacity:0.9" fill="url(#sw-gradient-1)" d="M0,423L18.5,407.3C36.9,392,74,360,111,297.7C147.7,235,185,141,222,125.3C258.5,110,295,172,332,219.3C369.2,266,406,298,443,289.8C480,282,517,235,554,203.7C590.8,172,628,157,665,172.3C701.5,188,738,235,775,242.8C812.3,251,849,219,886,195.8C923.1,172,960,157,997,125.3C1033.8,94,1071,47,1108,47C1144.6,47,1182,94,1218,133.2C1255.4,172,1292,204,1329,188C1366.2,172,1403,110,1440,78.3C1476.9,47,1514,47,1551,62.7C1587.7,78,1625,110,1662,164.5C1698.5,219,1735,298,1772,321.2C1809.2,345,1846,313,1883,321.2C1920,329,1957,376,1994,391.7C2030.8,407,2068,392,2105,383.8C2141.5,376,2178,376,2215,352.5C2252.3,329,2289,282,2326,235C2363.1,188,2400,141,2437,156.7C2473.8,172,2511,251,2548,235C2584.6,219,2622,110,2640,54.8L2658.5,0L2658.5,470L2640,470C2621.5,470,2585,470,2548,470C2510.8,470,2474,470,2437,470C2400,470,2363,470,2326,470C2289.2,470,2252,470,2215,470C2178.5,470,2142,470,2105,470C2067.7,470,2031,470,1994,470C1956.9,470,1920,470,1883,470C1846.2,470,1809,470,1772,470C1735.4,470,1698,470,1662,470C1624.6,470,1588,470,1551,470C1513.8,470,1477,470,1440,470C1403.1,470,1366,470,1329,470C1292.3,470,1255,470,1218,470C1181.5,470,1145,470,1108,470C1070.8,470,1034,470,997,470C960,470,923,470,886,470C849.2,470,812,470,775,470C738.5,470,702,470,665,470C627.7,470,591,470,554,470C516.9,470,480,470,443,470C406.2,470,369,470,332,470C295.4,470,258,470,222,470C184.6,470,148,470,111,470C73.8,470,37,470,18,470L0,470Z"/></svg>